<svg width="260" height="260" viewBox="0 0 260 260" fill="none" xmlns="http://www.w3.org/2000/svg">
<path d="M130 121.163C84.254 121.163 47 168.994 47 227.929C47 231.915 49.0088 235.047 51.5654 235.047H208.435C210.991 235.047 213 231.915 213 227.929C213 168.994 175.746 121.163 130 121.163Z" fill="#446CFB"/>
<path d="M173.382 99.209C173.382 123.567 153.636 143.313 129.278 143.313C104.92 143.313 85.174 123.567 85.174 99.209C85.174 74.851 104.92 55.1048 129.278 55.1048C153.636 55.1048 173.382 74.851 173.382 99.209Z" fill="#F7FFD8" stroke="#434738" stroke-width="3"/>
<circle cx="85.6046" cy="78.6978" r="25.093" fill="#446CFB"/>
<circle cx="110.698" cy="53.605" r="25.093" fill="#446CFB"/>
<ellipse cx="142.547" cy="45.8837" rx="31.8488" ry="30.8837" fill="#446CFB"/>
<ellipse cx="172.465" cy="72.907" rx="28.9535" ry="30.8837" fill="#446CFB"/>
<circle cx="118.419" cy="101.86" r="8.68605" fill="#434738"/>
<circle cx="138.686" cy="101.86" r="8.68605" fill="#434738"/>
<mask id="mask0_12_9" style="mask-type:alpha" maskUnits="userSpaceOnUse" x="86" y="145" width="88" height="88">
<rect x="86" y="145" width="88" height="88" fill="#D9D9D9"/>
</mask>
<g mask="url(#mask0_12_9)">
<path d="M111.667 222C106.594 222 102.271 220.212 98.6959 216.637C95.1209 213.062 93.3334 208.739 93.3334 203.667C93.3334 199.206 94.7237 195.31 97.5042 191.979C100.285 188.649 103.783 186.556 108 185.7V193.308C105.861 194.042 104.104 195.356 102.729 197.25C101.354 199.144 100.667 201.283 100.667 203.667C100.667 206.722 101.736 209.319 103.875 211.458C106.014 213.597 108.611 214.667 111.667 214.667C114.722 214.667 117.319 213.597 119.458 211.458C121.597 209.319 122.667 206.722 122.667 203.667V200H144.208C144.697 199.45 145.293 199.007 145.996 198.671C146.699 198.335 147.478 198.167 148.333 198.167C149.861 198.167 151.16 198.701 152.229 199.771C153.299 200.84 153.833 202.139 153.833 203.667C153.833 205.194 153.299 206.493 152.229 207.562C151.16 208.632 149.861 209.167 148.333 209.167C147.478 209.167 146.699 208.999 145.996 208.662C145.293 208.326 144.697 207.883 144.208 207.333H129.633C128.778 211.55 126.685 215.049 123.354 217.829C120.024 220.61 116.128 222 111.667 222ZM148.333 222C144.911 222 141.81 221.16 139.029 219.479C136.249 217.799 134.064 215.583 132.475 212.833H142.283C143.139 213.444 144.086 213.903 145.125 214.208C146.164 214.514 147.233 214.667 148.333 214.667C151.389 214.667 153.986 213.597 156.125 211.458C158.264 209.319 159.333 206.722 159.333 203.667C159.333 200.611 158.264 198.014 156.125 195.875C153.986 193.736 151.389 192.667 148.333 192.667C147.111 192.667 145.981 192.835 144.942 193.171C143.903 193.507 142.925 194.011 142.008 194.683L130.825 176.075C129.542 175.831 128.472 175.219 127.617 174.242C126.761 173.264 126.333 172.072 126.333 170.667C126.333 169.139 126.868 167.84 127.938 166.771C129.007 165.701 130.306 165.167 131.833 165.167C133.361 165.167 134.66 165.701 135.729 166.771C136.799 167.84 137.333 169.139 137.333 170.667V171.446C137.333 171.66 137.272 171.919 137.15 172.225L145.125 185.608C145.614 185.486 146.133 185.41 146.683 185.379C147.233 185.349 147.783 185.333 148.333 185.333C153.406 185.333 157.729 187.121 161.304 190.696C164.879 194.271 166.667 198.594 166.667 203.667C166.667 208.739 164.879 213.062 161.304 216.637C157.729 220.212 153.406 222 148.333 222ZM111.667 209.167C110.139 209.167 108.84 208.632 107.771 207.562C106.701 206.493 106.167 205.194 106.167 203.667C106.167 202.322 106.594 201.161 107.45 200.183C108.306 199.206 109.344 198.564 110.567 198.258L119.183 183.958C117.411 182.308 116.021 180.337 115.013 178.046C114.004 175.754 113.5 173.294 113.5 170.667C113.5 165.594 115.288 161.271 118.863 157.696C122.438 154.121 126.761 152.333 131.833 152.333C136.906 152.333 141.229 154.121 144.804 157.696C148.379 161.271 150.167 165.594 150.167 170.667H142.833C142.833 167.611 141.764 165.014 139.625 162.875C137.486 160.736 134.889 159.667 131.833 159.667C128.778 159.667 126.181 160.736 124.042 162.875C121.903 165.014 120.833 167.611 120.833 170.667C120.833 173.294 121.628 175.601 123.217 177.587C124.806 179.574 126.822 180.842 129.267 181.392L116.892 202.017C117.014 202.322 117.09 202.597 117.121 202.842C117.151 203.086 117.167 203.361 117.167 203.667C117.167 205.194 116.632 206.493 115.563 207.562C114.493 208.632 113.194 209.167 111.667 209.167Z" fill="#F7FFD8"/>
</g>
</svg>
